<svg width="512" height="512" version="1.1" xmlns="http://www.w3.org/2000/svg" desc="Created with imagetracer.js version 1.2.6" ><path fill="rgb(0,0,0)" stroke="rgb(0,0,0)" stroke-width="1" opacity="0.8" d="M 71.5 61 L 69.5 64 L 71.5 61 Z " /><path fill="rgb(0,0,0)" stroke="rgb(0,0,0)" stroke-width="1" opacity="0.8" d="M 80.5 61 L 82.5 64 L 80.5 61 Z " /><path fill="rgb(0,0,0)" stroke="rgb(0,0,0)" stroke-width="1" opacity="0.8" d="M 54.5 82 L 61 82.5 L 54.5 83 L 54.5 82 Z " /><path fill="rgb(0,0,0)" stroke="rgb(0,0,0)" stroke-width="1" opacity="0.8" d="M 455.5 82 L 461 82.5 L 455.5 83 L 455.5 82 Z " /><path fill="rgb(0,0,0)" stroke="rgb(0,0,0)" stroke-width="1" opacity="0.8" d="M 49.5 83 L 52 83.5 L 49.5 84 L 49.5 83 Z " /><path fill="rgb(0,0,0)" stroke="rgb(0,0,0)" stroke-width="1" opacity="0.8" d="M 474.5 87 L 475.5 89 L 474.5 87 Z " /><path fill="rgb(0,0,0)" stroke="rgb(0,0,0)" stroke-width="1" opacity="0.8" d="M 31.5 90 L 29.5 93 L 31.5 90 Z " /><path fill="rgb(0,0,0)" stroke="rgb(0,0,0)" stroke-width="1" opacity="0.8" d="M 478.5 90 L 479.5 92 L 478.5 90 Z " /><path fill="rgb(0,0,0)" stroke="rgb(0,0,0)" stroke-width="1" opacity="0.8" d="M 26.5 94 L 23.5 98 L 26.5 94 Z " /><path fill="rgb(0,0,0)" stroke="rgb(0,0,0)" stroke-width="1" opacity="0.8" d="M 481.5 94 L 482.5 96 L 481.5 94 Z " /><path fill="rgb(0,0,0)" stroke="rgb(0,0,0)" stroke-width="1" opacity="0.8" d="M 21.5 100 L 20.5 102 L 21.5 100 Z " /><path fill="rgb(0,0,0)" stroke="rgb(0,0,0)" stroke-width="1" opacity="0.8" d="M 487.5 109 L 488 114.5 L 487 114.5 L 487.5 109 Z " /><path fill="rgb(0,0,0)" stroke="rgb(0,0,0)" stroke-width="1" opacity="0.8" d="M 16.5 111 L 17 114.5 L 16 114.5 L 16.5 111 Z " /><path fill="rgb(0,0,0)" stroke="rgb(0,0,0)" stroke-width="1" opacity="0.8" d="M 499.5 126 L 504 126.5 L 499.5 127 L 499.5 126 Z " /><path fill="rgb(0,0,0)" stroke="rgb(0,0,0)" stroke-width="1" opacity="0.8" d="M 508.5 128 L 509.5 130 L 508.5 128 Z " /><path fill="rgb(0,0,0)" stroke="rgb(0,0,0)" stroke-width="1" opacity="0.8" d="M 511.5 134 L 512 138.5 L 511 138.5 L 511.5 134 Z " /><path fill="rgb(0,0,0)" stroke="rgb(0,0,0)" stroke-width="1" opacity="0.8" d="M 511.5 195 L 512 205.5 L 511 205.5 L 511.5 195 Z " /><path fill="rgb(0,0,0)" stroke="rgb(0,0,0)" stroke-width="1" opacity="0.8" d="M 393.5 200 L 396 200.5 L 393.5 201 L 393.5 200 Z " /><path fill="rgb(0,0,0)" stroke="rgb(0,0,0)" stroke-width="1" opacity="0.8" d="M 408.5 200 L 411 200.5 L 408.5 201 L 408.5 200 Z " /><path fill="rgb(0,0,0)" stroke="rgb(0,0,0)" stroke-width="1" opacity="0.8" d="M 376.5 206 L 375.5 208 L 376.5 206 Z " /><path fill="rgb(0,0,0)" stroke="rgb(0,0,0)" stroke-width="1" opacity="0.8" d="M 430.5 208 L 431.5 210 L 430.5 208 Z " /><path fill="rgb(0,0,0)" stroke="rgb(0,0,0)" stroke-width="1" opacity="0.8" d="M 371.5 209 L 369.5 212 L 371.5 209 Z " /><path fill="rgb(0,0,0)" stroke="rgb(0,0,0)" stroke-width="1" opacity="0.8" d="M 509.5 210 L 507.5 213 L 506 212.5 L 509.5 210 Z " /><path fill="rgb(0,0,0)" stroke="rgb(0,0,0)" stroke-width="1" opacity="0.8" d="M 434.5 211 L 437.5 215 L 434.5 211 Z " /><path fill="rgb(0,0,0)" stroke="rgb(0,0,0)" stroke-width="1" opacity="0.8" d="M 492.5 213 L 504 213.5 L 492.5 214 L 492.5 213 Z " /><path fill="rgb(0,0,0)" stroke="rgb(0,0,0)" stroke-width="1" opacity="0.8" d="M 365.5 214 L 363.5 217 L 365.5 214 Z " /><path fill="rgb(0,0,0)" stroke="rgb(0,0,0)" stroke-width="1" opacity="0.8" d="M 399.5 216 L 404 216.5 L 399.5 217 L 399.5 216 Z " /><path fill="rgb(0,0,0)" stroke="rgb(0,0,0)" stroke-width="1" opacity="0.8" d="M 439.5 216 L 442.5 220 L 439.5 216 Z " /><path fill="rgb(0,0,0)" stroke="rgb(0,0,0)" stroke-width="1" opacity="0.8" d="M 361.5 219 L 359.5 222 L 361.5 219 Z " /><path fill="rgb(0,0,0)" stroke="rgb(0,0,0)" stroke-width="1" opacity="0.8" d="M 383.5 221 L 382.5 223 L 383.5 221 Z " /><path fill="rgb(0,0,0)" stroke="rgb(0,0,0)" stroke-width="1" opacity="0.8" d="M 421.5 222 L 422.5 224 L 421.5 222 Z " /><path fill="rgb(0,0,0)" stroke="rgb(0,0,0)" stroke-width="1" opacity="0.8" d="M 444.5 222 L 445.5 224 L 444.5 222 Z " /><path fill="rgb(0,0,0)" stroke="rgb(0,0,0)" stroke-width="1" opacity="0.8" d="M 380.5 223 L 377.5 227 L 380.5 223 Z " /><path fill="rgb(0,0,0)" stroke="rgb(0,0,0)" stroke-width="1" opacity="0.8" d="M 16.5 225 L 17 229.5 L 16 229.5 L 16.5 225 Z " /><path fill="rgb(0,0,0)" stroke="rgb(0,0,0)" stroke-width="1" opacity="0.8" d="M 135.5 225 L 136 231.5 L 135 231.5 L 135.5 225 Z " /><path fill="rgb(0,0,0)" stroke="rgb(0,0,0)" stroke-width="1" opacity="0.8" d="M 426.5 226 L 427.5 228 L 426.5 226 Z " /><path fill="rgb(0,0,0)" stroke="rgb(0,0,0)" stroke-width="1" opacity="0.8" d="M 375.5 228 L 373.5 231 L 375.5 228 Z " /><path fill="rgb(0,0,0)" stroke="rgb(0,0,0)" stroke-width="1" opacity="0.8" d="M 430.5 231 L 431.5 233 L 430.5 231 Z " /><path fill="rgb(0,0,0)" stroke="rgb(0,0,0)" stroke-width="1" opacity="0.8" d="M 350.5 241 L 351 243.5 L 350 243.5 L 350.5 241 Z " /><path fill="rgb(0,0,0)" stroke="rgb(0,0,0)" stroke-width="1" opacity="0.8" d="M 436.5 244 L 437 246.5 L 436 246.5 L 436.5 244 Z " /><path fill="rgb(0,0,0)" stroke="rgb(0,0,0)" stroke-width="1" opacity="0.8" d="M 453.5 244 L 454 247.5 L 453 247.5 L 453.5 244 Z " /><path fill="rgb(0,0,0)" stroke="rgb(0,0,0)" stroke-width="1" opacity="0.8" d="M 24.5 247 L 26.5 250 L 24.5 247 Z " /><path fill="rgb(0,0,0)" stroke="rgb(0,0,0)" stroke-width="1" opacity="0.8" d="M 366.5 247 L 367 250.5 L 366 250.5 L 366.5 247 Z " /><path fill="rgb(0,0,0)" stroke="rgb(0,0,0)" stroke-width="1" opacity="0.8" d="M 349.5 248 L 350 255.5 L 349 255.5 L 349.5 248 Z " /><path fill="rgb(0,0,0)" stroke="rgb(0,0,0)" stroke-width="1" opacity="0.8" d="M 28.5 252 L 33.5 258 L 28.5 252 Z " /><path fill="rgb(0,0,0)" stroke="rgb(0,0,0)" stroke-width="1" opacity="0.8" d="M 128.5 252 L 127.5 254 L 128.5 252 Z " /><path fill="rgb(0,0,0)" stroke="rgb(0,0,0)" stroke-width="1" opacity="0.8" d="M 366.5 253 L 367 257.5 L 366 257.5 L 366.5 253 Z " /><path fill="rgb(0,0,0)" stroke="rgb(0,0,0)" stroke-width="1" opacity="0.8" d="M 126.5 255 L 125.5 257 L 126.5 255 Z " /><path fill="rgb(0,0,0)" stroke="rgb(0,0,0)" stroke-width="1" opacity="0.8" d="M 453.5 256 L 454 259.5 L 453 259.5 L 453.5 256 Z " /><path fill="rgb(0,0,0)" stroke="rgb(0,0,0)" stroke-width="1" opacity="0.8" d="M 36.5 259 L 38.5 262 L 36.5 259 Z " /><path fill="rgb(0,0,0)" stroke="rgb(0,0,0)" stroke-width="1" opacity="0.8" d="M 123.5 259 L 120.5 263 L 123.5 259 Z " /><path fill="rgb(0,0,0)" stroke="rgb(0,0,0)" stroke-width="1" opacity="0.8" d="M 350.5 260 L 351 262.5 L 350 262.5 L 350.5 260 Z " /><path fill="rgb(0,0,0)" stroke="rgb(0,0,0)" stroke-width="1" opacity="0.8" d="M 42.5 263 L 43.5 265 L 42.5 263 Z " /><path fill="rgb(0,0,0)" stroke="rgb(0,0,0)" stroke-width="1" opacity="0.8" d="M 118.5 263 L 116.5 266 L 118.5 263 Z " /><path fill="rgb(0,0,0)" stroke="rgb(0,0,0)" stroke-width="1" opacity="0.8" d="M 57.5 269 L 61 269.5 L 57.5 270 L 57.5 269 Z " /><path fill="rgb(0,0,0)" stroke="rgb(0,0,0)" stroke-width="1" opacity="0.8" d="M 103.5 269 L 107 269.5 L 103.5 270 L 103.5 269 Z " /><path fill="rgb(0,0,0)" stroke="rgb(0,0,0)" stroke-width="1" opacity="0.8" d="M 353.5 271 L 355 273.5 L 353 272.5 L 353.5 271 Z " /><path fill="rgb(0,0,0)" stroke="rgb(0,0,0)" stroke-width="1" opacity="0.8" d="M 431.5 271 L 430.5 273 L 431.5 271 Z " /><path fill="rgb(0,0,0)" stroke="rgb(0,0,0)" stroke-width="1" opacity="0.8" d="M 372.5 272 L 375.5 276 L 372.5 272 Z " /><path fill="rgb(0,0,0)" stroke="rgb(0,0,0)" stroke-width="1" opacity="0.8" d="M 428.5 275 L 425.5 279 L 428.5 275 Z " /><path fill="rgb(0,0,0)" stroke="rgb(0,0,0)" stroke-width="1" opacity="0.8" d="M 378.5 278 L 381.5 282 L 378.5 278 Z " /><path fill="rgb(0,0,0)" stroke="rgb(0,0,0)" stroke-width="1" opacity="0.8" d="M 358.5 281 L 360.5 284 L 358.5 281 Z " /><path fill="rgb(0,0,0)" stroke="rgb(0,0,0)" stroke-width="1" opacity="0.8" d="M 419.5 282 L 418.5 284 L 419.5 282 Z " /><path fill="rgb(0,0,0)" stroke="rgb(0,0,0)" stroke-width="1" opacity="0.8" d="M 442.5 284 L 440.5 287 L 442.5 284 Z " /><path fill="rgb(0,0,0)" stroke="rgb(0,0,0)" stroke-width="1" opacity="0.8" d="M 363.5 287 L 366.5 291 L 363.5 287 Z " /><path fill="rgb(0,0,0)" stroke="rgb(0,0,0)" stroke-width="1" opacity="0.8" d="M 398.5 287 L 406 287.5 L 398.5 288 L 398.5 287 Z " /><path fill="rgb(0,0,0)" stroke="rgb(0,0,0)" stroke-width="1" opacity="0.8" d="M 436.5 290 L 433.5 294 L 436.5 290 Z " /><path fill="rgb(0,0,0)" stroke="rgb(0,0,0)" stroke-width="1" opacity="0.8" d="M 369.5 292 L 372.5 296 L 369.5 292 Z " /><path fill="rgb(0,0,0)" stroke="rgb(0,0,0)" stroke-width="1" opacity="0.8" d="M 426.5 297 L 425.5 299 L 426.5 297 Z " /><path fill="rgb(0,0,0)" stroke="rgb(0,0,0)" stroke-width="1" opacity="0.8" d="M 392.5 303 L 395 303.5 L 392.5 304 L 392.5 303 Z " /><path fill="rgb(0,0,0)" stroke="rgb(0,0,0)" stroke-width="1" opacity="0.8" d="M 409.5 303 L 412 303.5 L 409.5 304 L 409.5 303 Z " /><path fill="rgb(0,0,0)" stroke="rgb(0,0,0)" stroke-width="1" opacity="0.8" d="M 91.5 306 L 92 313.5 L 91 313.5 L 91.5 306 Z " /><path fill="rgb(0,0,0)" stroke="rgb(0,0,0)" stroke-width="1" opacity="0.8" d="M 71.5 358 L 72.5 360 L 71.5 358 Z " /><path fill="rgb(0,0,0)" stroke="rgb(0,0,0)" stroke-width="1" opacity="0.8" d="M 80.5 358 L 79.5 360 L 80.5 358 Z " /><path fill="rgb(0,0,0)" stroke="rgb(0,0,0)" stroke-width="1" opacity="0.8" d="M 18.5 378 L 25 378.5 L 18.5 379 L 18.5 378 Z " /><path fill="rgb(0,0,0)" stroke="rgb(0,0,0)" stroke-width="1" opacity="0.8" d="M 495.5 378 L 500 378.5 L 495.5 379 L 495.5 378 Z " /><path fill="rgb(0,0,0)" stroke="rgb(0,0,0)" stroke-width="1" opacity="0.8" d="M 504.5 380 L 505.5 382 L 504.5 380 Z " /><path fill="rgb(0,0,0)" stroke="rgb(0,0,0)" stroke-width="1" opacity="0.8" d="M 4.5 383 L 2.5 386 L 4.5 383 Z " /><path fill="rgb(0,0,0)" stroke="rgb(0,0,0)" stroke-width="1" opacity="0.8" d="M 507.5 386 L 508 390.5 L 507 390.5 L 507.5 386 Z " /><path fill="rgb(0,0,0)" stroke="rgb(0,0,0)" stroke-width="1" opacity="0.8" d="M 0.5 389 L 1 391.5 L 0 391.5 L 0.5 389 Z " /><path fill="rgb(0,0,0)" stroke="rgb(0,0,0)" stroke-width="1" opacity="0.8" d="M 0.5 452 L 2.5 457 L 6 457.5 L 2.5 458 Q -1.3 456.7 0.5 452 Z " /><path fill="rgb(0,0,0)" stroke="rgb(0,0,0)" stroke-width="1" opacity="1" d="M 404 54 L 436 54 L 436 82 L 454.5 82 L 469.5 85 L 481 93.5 L 486 102.5 L 487 114.5 L 488 115.5 L 488 126 L 505.5 127 L 510 130.5 L 512 139.5 L 512 194.5 L 511 195.5 L 511 207.5 L 507.5 212 L 488 214 L 488 377.5 Q 488.3 378.8 494.5 378 Q 496 380.5 501.5 379 L 506 382.5 L 508 391.5 L 508 458 L 6.5 458 L 1 455.5 L 0 451.5 L 0 392.5 Q 0.9 385.9 5.5 383 L 15.5 379 L 24.5 379 L 25.5 378 L 304 378 L 304 214 L 136 214 L 135 234.5 L 133 242.5 Q 128.7 255.2 119.5 263 L 108.5 269 L 92 270 L 92 305.5 L 91 306.5 L 91 314 L 84.5 314 L 84 314.5 L 84 352.5 L 82 358 L 78.5 360 L 73.5 360 L 70 358 L 68 352.5 L 68 314 L 60.5 314 L 60 313.5 L 60 270.5 L 60.5 269 L 54.5 269 L 44.5 265 Q 34.1 259.4 27 250.5 L 20 239.5 L 16 224.5 L 16 115.5 L 20 102.5 L 28.5 93 Q 36.3 86.8 47.5 84 L 68 82 L 68 67.5 L 72.5 61 L 76.5 60 L 83 64.5 L 84 67.5 L 84 82 L 403.5 82 L 404 81.5 L 404 54 Z M 394 200 Q 376 204 366 214 Q 357 222 352 235 L 349 249 L 350 263 L 353 273 L 363 288 Q 371 297 385 302 L 402 305 L 403 304 L 412 304 L 422 301 L 434 294 Q 449 282 454 260 L 454 245 L 453 240 L 443 220 Q 434 208 419 202 L 411 200 L 394 200 Z M 364 330 L 364 346 L 388 346 L 388 330 L 364 330 Z M 404 330 L 404 346 L 428 346 L 428 330 L 404 330 Z " /><path fill="rgb(0,0,0)" stroke="rgb(0,0,0)" stroke-width="1" opacity="1" d="M 395.5 217 Q 407.6 215.4 414.5 219 Q 424.2 222.8 430 230.5 Q 438.1 239.4 437 257.5 Q 433.5 273 422.5 281 L 408.5 287 L 394.5 287 Q 382.9 284.1 376 276.5 L 368 263.5 L 366 251.5 L 369 238.5 L 376 227 L 384.5 221 L 395.5 217 Z " /><path fill="rgb(0,0,0)" stroke="rgb(0,0,0)" stroke-width="1" opacity="0" d="M 0 0 L 511.5 0 L 512 0.5 L 512 133.5 L 511 133.5 L 508.5 128 L 503.5 126 L 488 126 L 488 109.5 L 486 101.5 L 478.5 90 L 468.5 84 L 460.5 82 L 436 82 L 436 54 L 404 54 L 404 81.5 L 403.5 82 L 84 82 L 84 65.5 L 80.5 61 L 73.5 60 L 69 63.5 L 68 65.5 L 68 82 Q 37.1 80.9 23 97.5 L 16 111.5 L 16 229.5 Q 20.9 247.6 33.5 258 L 47.5 267 L 60 270 L 60 313.5 L 60.5 314 L 67.5 314 L 68 314.5 L 68 354.5 L 72.5 360 Q 81.3 361.8 83 356.5 L 84 354.5 L 84 314 L 91.5 314 L 92 313.5 L 92 270 L 106.5 270 Q 117.8 267.3 124 259.5 Q 138 244.3 136 214 L 304 214 L 304 378 L 18.5 378 L 10.5 380 L 2 385.5 L 0.5 389 L 0 0 Z " /><path fill="rgb(0,0,0)" stroke="rgb(0,0,0)" stroke-width="1" opacity="0" d="M 396.5 200 L 407.5 200 L 422.5 204 L 439 215 L 446 224.5 L 451 234.5 L 453 241.5 L 454 255.5 L 451 269.5 Q 446.6 282.1 437.5 290 Q 429.4 297.9 417.5 302 L 408.5 304 L 395.5 304 Q 372.5 300 361 284.5 L 351 264.5 L 350 259.5 L 350 244.5 Q 354.1 223.1 368.5 212 L 383.5 203 L 396.5 200 Z M 400 216 L 388 219 L 381 223 Q 369 231 366 248 L 366 258 L 372 273 L 382 282 L 390 286 L 399 288 Q 417 288 426 279 Q 432 273 436 264 L 438 253 L 435 239 L 428 228 Q 419 216 400 216 Z " /><path fill="rgb(0,0,0)" stroke="rgb(0,0,0)" stroke-width="1" opacity="0" d="M 511.5 206 L 512 512 L 0.5 512 L 0 511.5 L 0 456.5 L 2.5 458 L 507.5 458 L 508 457.5 L 508 386.5 L 504.5 380 Q 498.6 376.3 488 378 L 488 214.5 L 488.5 214 L 503.5 214 L 507.5 213 L 510 210.5 L 511.5 206 Z " /><path fill="rgb(0,0,0)" stroke="rgb(0,0,0)" stroke-width="1" opacity="0" d="M 364 330 L 388 330 L 388 346 L 364 346 L 364 330 Z " /><path fill="rgb(0,0,0)" stroke="rgb(0,0,0)" stroke-width="1" opacity="0" d="M 404 330 L 428 330 L 428 346 L 404 346 L 404 330 Z " /></svg>